HIERARCHY
ROOT Hips
{
   OFFSET 0.00000 0.00000 0.00000
   CHANNELS 6 Xposition Yposition Zposition Zrotation Xrotation Yrotation
   JOINT Spine
   {
      OFFSET 0.000000 10.701450 0.000000
      CHANNELS 3 Zrotation Xrotation Yrotation
      JOINT Spine1
      {
         OFFSET -0.000000 23.091659 0.114894
         CHANNELS 3 Zrotation Xrotation Yrotation
         JOINT HEad
         {
            OFFSET 0.000000 7.860744 0.010206
            CHANNELS 3 Zrotation Xrotation Yrotation
            End Site
            {
               OFFSET -0.261000 11.496780 2.262555
            }
         }
         JOINT LeftShoulder1
         {
            OFFSET 8.091000 -0.326025 -0.198000
            CHANNELS 3 Zrotation Xrotation Yrotation
            JOINT LeftArm
            {
               OFFSET 9.254430 -0.003042 0.289908
               CHANNELS 3 Zrotation Xrotation Yrotation
               JOINT LeftForeArm
               {
                  OFFSET 29.490208 0.089226 -1.281906
                  CHANNELS 3 Zrotation Xrotation Yrotation
                  JOINT LeftHand
                  {
                     OFFSET 24.807870 0.076824 0.919944
                     CHANNELS 3 Zrotation Xrotation Yrotation
                     End Site
                     {
                        OFFSET 15.069871 -0.540000 1.352619
                     }
                  }
               }
            }
         }
         JOINT RightShoulder
         {
            OFFSET -8.091000 -0.326025 -0.198000
            CHANNELS 3 Zrotation Xrotation Yrotation
            JOINT RightArm
            {
               OFFSET -9.254430 -0.003042 0.289908
               CHANNELS 3 Zrotation Xrotation Yrotation
               JOINT RightForeArm
               {
                  OFFSET -29.607386 0.089226 -1.281906
                  CHANNELS 3 Zrotation Xrotation Yrotation
                  JOINT RightHand
                  {
                     OFFSET -24.742889 0.076824 0.919944
                     CHANNELS 3 Zrotation Xrotation Yrotation
                     End Site
                     {
                        OFFSET -14.968080 -0.540000 1.352619
                     }
                  }
               }
            }
         }
      }
   }
   JOINT LeftUpLeg
   {
      OFFSET 8.051219 -7.800363 0.091485
      CHANNELS 3 Zrotation Xrotation Yrotation
      JOINT LeftLeg
      {
         OFFSET 0.000000 -39.980428 1.235430
         CHANNELS 3 Zrotation Xrotation Yrotation
         JOINT LeftFoot
         {
            OFFSET -0.228195 -37.883157 -1.314531
            CHANNELS 3 Zrotation Xrotation Yrotation
            JOINT LeftToes
            {
               OFFSET -0.036000 -3.973581 7.649189
               CHANNELS 3 Zrotation Xrotation Yrotation
               End Site
               {
                  OFFSET 0.072000 -0.042705 8.801811
               }
            }
         }
      }
   }
   JOINT RightUpLeg
   {
      OFFSET -8.051219 -7.800363 0.091485
      CHANNELS 3 Zrotation Xrotation Yrotation
      JOINT RightLeg
      {
         OFFSET 0.000000 -39.980428 1.235430
         CHANNELS 3 Zrotation Xrotation Yrotation
         JOINT RightFoot
         {
            OFFSET 0.228195 -37.883157 -1.314531
            CHANNELS 3 Zrotation Xrotation Yrotation
            JOINT RightToes
            {
               OFFSET 0.036000 -3.973581 7.649189
               CHANNELS 3 Zrotation Xrotation Yrotation
               End Site
               {
                  OFFSET -0.072000 -0.123705 8.801811
               }
            }
         }
      }
   }
}
MOTION
Frames: 16
Frame Time: 0.016670
42.523259 82.508887 -119.817589 -9.099038 -17.075338 -48.542168 -4.815423 19.293872 79.329669 15.746279 15.064141 -59.796407 -14.272946 22.837699 9.694254 -18.211303 14.438123 -5.134594 -160.941714 -65.165769 -143.596982 -39.909540 85.478178 -65.908505 -5.413170 -4.752115 10.307754 3.974783 123.741909 29.901199 70.167162 53.267600 233.343632 92.508881 202.390280 64.114255 -62.487331 -71.915075 -20.885489 22.821744 4.246703 -28.949245 -13.069614 16.971106 113.239059 -38.794344 29.869831 19.505832 0.177415 18.690229 -39.992902 -16.069234 -9.490150 47.839704 15.614875 23.878442 72.845593 -20.309918 40.489525 -13.627712 31.588621 -29.686389 -58.512250
42.878990 79.828476 -120.318096 -9.977811 -15.133640 -47.489349 -7.041472 22.557185 76.911857 11.924812 14.819745 -63.178341 -16.204272 20.531016 10.580236 -19.661714 9.095439 -1.307033 -161.031545 -69.455893 -138.578145 -37.244779 79.742930 -69.381929 2.088051 -6.942711 5.381593 5.097578 119.100536 28.635107 69.419092 58.226482 228.230634 75.762364 193.759804 75.557253 -61.768242 -72.943818 -19.786020 24.361698 -0.383771 -27.239927 -12.360689 21.502245 115.075136 -36.042454 27.299318 18.622596 -1.626959 1.041490 -35.517172 -13.110371 -13.266954 44.368742 13.114098 31.378842 81.802225 -20.418407 35.845659 -13.945733 27.330005 -37.088395 -57.438134
43.492116 76.307286 -121.049288 -10.185108 -12.710209 -43.254898 -7.993611 27.823846 74.990430 9.338327 11.990519 -64.389860 -19.095631 15.769643 11.808718 -20.862849 5.032909 -0.238199 -161.326828 -74.285725 -136.238204 -36.649316 77.120813 -72.917249 -3.279246 -1.817934 1.237047 7.570618 114.156783 27.037756 71.852354 63.260591 225.052561 64.683585 189.544839 85.039851 -62.014593 -69.913570 -18.971831 26.654245 -7.628816 -24.293844 -12.462218 25.472916 115.270999 -33.095542 25.847816 18.204606 -10.602229 7.458644 -42.249668 -11.488951 -18.277707 37.676546 10.004841 36.743249 95.113164 -21.161671 29.154762 -13.202343 22.101353 -43.281492 -55.383016
44.191875 72.596568 -121.955021 -9.925079 -11.007243 -39.728512 -13.340968 34.928781 74.077718 6.808202 7.415708 -66.916647 -21.744013 10.521044 12.794309 -21.848477 0.033016 -0.410257 -161.866235 -79.059365 -136.553349 -36.409956 73.176202 -75.504456 0.906133 -3.780389 -5.247925 12.116501 108.603006 26.158047 73.708622 69.053991 221.830515 58.076614 188.187722 93.355347 -61.517601 -71.051289 -18.101675 28.376468 -15.566916 -19.253432 -10.933380 31.302887 110.836799 -30.317229 23.298001 16.532538 -16.172467 2.686887 -43.321540 -7.883645 -23.818832 29.785813 -1.801762 43.822282 116.200697 -21.569565 22.623651 -11.828367 17.645754 -47.046650 -52.700080
44.932627 68.729881 -123.117998 -6.290781 -11.773688 -34.325573 -20.383779 44.524873 74.997588 5.455662 7.798209 -69.967672 -23.146579 11.270812 12.457029 -22.153748 -5.919973 0.744749 -161.328645 -81.910825 -138.964092 -38.229440 70.341386 -80.004820 -1.239675 -0.918531 -10.835829 16.221868 100.165038 26.560106 73.553986 75.870336 219.291064 57.884487 184.205844 105.691010 -62.509488 -71.409737 -20.337949 25.790584 -23.820220 -12.452278 -6.865138 37.865073 99.962298 -27.420343 20.365983 13.104793 -20.927206 2.755920 -48.255471 -1.473065 -33.137182 23.119951 -38.477369 56.583039 150.975280 -20.768182 19.617253 -10.712860 15.410278 -47.305146 -50.374155
45.702838 64.808024 -124.423531 -9.641189 -10.101588 -26.434207 -21.852195 54.190454 77.802610 6.098405 5.739168 -73.409541 -23.597322 12.333818 11.280254 -21.295705 -10.354228 -2.360610 -159.991676 -82.799289 -141.379493 -37.282140 69.862221 -80.847651 1.942323 -2.419428 -15.552199 19.258586 91.652847 26.283717 77.531588 80.656550 214.538318 59.483045 185.668980 112.751602 -66.379392 -71.175789 -23.505375 27.326733 -31.489771 -7.433015 5.128737 41.692533 83.298371 -25.454638 17.781762 9.251833 -25.426469 -0.250097 -50.918439 -13.799435 -39.158233 40.173165 -120.243445 123.836630 197.735465 -19.390079 13.656709 -3.512186 9.745518 -48.822715 -45.908556
46.571736 61.138209 -125.902613 -11.717762 -6.951087 -20.955729 -23.302059 61.175853 85.581710 7.895656 3.281684 -75.055965 -23.351341 12.243655 9.607470 -20.196851 -13.157379 -9.271613 -159.354898 -81.073936 -142.100446 -34.692720 71.659879 -79.778133 -0.007149 -0.232200 -17.538273 22.352930 84.212811 27.008661 84.417252 85.270670 209.060506 58.565361 187.337226 116.115347 -71.242930 -71.794099 -25.088260 26.755128 -39.358716 -1.528462 20.952838 40.662636 62.044209 -25.316696 17.778622 4.722040 -28.586551 -1.547255 -51.777468 -15.978428 -37.263801 55.029629 -135.463019 148.249939 232.898796 -17.351949 -2.208031 10.706891 -1.130603 -53.853924 -36.627456
47.344894 57.554216 -127.236717 -12.181089 -5.087405 -17.104923 -30.513259 65.502149 98.276614 7.775851 3.019727 -76.048856 -22.155025 11.060393 7.564304 -17.824888 -15.680000 -15.473956 -158.745385 -79.046189 -142.264822 -31.660020 73.379611 -78.051331 0.848503 -0.647640 -18.691482 21.655936 76.019131 26.135032 90.138170 87.534994 203.254299 57.700345 189.079690 120.755518 -62.956736 -86.459758 -16.076833 27.968066 -47.232271 3.665807 36.639676 44.128285 35.652986 -24.579544 19.929592 -5.118773 -28.140461 -1.340294 -53.786684 -12.294769 -42.045016 63.308545 -132.182520 154.597398 250.085928 -14.452918 -14.265206 20.303994 -9.989966 -55.652313 -30.254962
48.068823 53.953232 -128.175409 -11.093323 -6.227616 -20.657777 -38.808223 62.249552 115.587401 7.798191 3.354316 -75.925237 -21.740151 9.582772 5.343876 -27.004193 -15.733365 -18.778879 -148.134891 -68.617645 -136.826461 -31.176136 79.998823 -77.792733 -1.789993 1.199012 -19.820642 15.063111 65.251208 37.580900 97.441487 85.235358 199.155407 55.199666 190.909552 118.612915 -72.315509 -80.131363 -27.370040 41.442159 -60.203596 16.601919 63.612455 68.098598 9.351321 -23.527790 24.670594 -17.150489 -25.249611 0.146936 -55.829659 -11.609171 -46.352843 68.908433 -124.916578 154.747894 255.570680 -10.652163 -19.145309 27.727459 -45.579382 -52.270703 -54.675418
48.756336 50.781078 -128.906363 -4.867390 -0.754214 -17.171540 -45.698859 58.816671 122.300111 11.690305 4.606182 -82.385803 -19.687983 8.840894 2.704552 -25.241724 -21.171206 -21.841053 -148.872565 -64.999243 -138.998270 -31.701176 77.311143 -78.647893 -0.702355 0.513703 -21.516832 18.636675 60.999129 37.755950 97.150787 89.195543 195.245766 54.250646 190.267965 122.019267 -69.677505 -88.101695 -25.011287 77.567904 -61.473642 43.991910 122.281560 118.271979 -9.147081 -22.840861 25.679433 -24.398814 -25.210618 -0.318286 -58.961219 -15.862377 -54.761510 73.666923 -124.399670 155.235296 259.115821 -7.276829 -20.262096 32.212231 -33.748112 -52.965928 -36.852818
49.235148 48.129820 -129.326809 -2.210407 6.580611 -12.577680 -49.339111 55.598105 126.017236 12.357332 -0.214699 -86.955596 -18.761029 4.610659 0.147308 -22.555633 -23.374251 -23.746512 -148.180968 -63.098517 -140.325608 -31.677417 77.115083 -79.238985 -2.146309 1.643465 -21.685837 21.871784 55.236187 36.376454 94.046862 94.882147 200.436040 51.988583 190.552128 125.023949 -76.176622 -84.933163 -31.481172 80.046272 -63.832202 62.992437 155.682428 131.173045 -19.522141 -21.858777 21.865215 -24.353347 -28.389456 -3.541092 -62.375596 -20.476919 -60.735442 75.164968 -123.948986 156.065123 260.038197 -5.024407 -20.302158 34.433340 -42.639314 -53.155903 -41.930292
49.801869 46.043948 -129.221647 1.652880 5.628950 -11.330375 -53.599763 55.306859 128.641081 11.315062 -1.269892 -90.576675 -19.905531 -1.114546 -2.169127 -20.499612 -23.512578 -24.010488 -151.939525 -61.627192 -146.070603 -35.045578 78.909094 -75.622523 -3.073857 2.174091 -22.463937 15.426274 47.231158 41.502654 94.290775 94.691332 199.334058 49.863185 189.924830 131.562011 -68.325476 -93.375168 -18.396143 69.343871 -66.899107 75.299386 180.747419 133.478617 -33.692596 -19.059967 16.779953 -23.634480 -31.769798 -8.010549 -66.674736 -28.439280 -60.185523 72.149132 -122.903872 154.577372 259.039760 -2.558139 -19.899036 34.972044 -40.771291 -56.960677 -37.854373
50.354528 44.316816 -128.638523 4.691849 1.170647 -8.461116 -56.508812 53.538728 131.126901 8.357998 -2.596271 -92.287713 -23.404661 -6.015368 -4.138100 -19.086778 -22.140627 -24.914833 -154.414649 -61.344238 -147.524682 -31.484481 77.458293 -82.019773 5.075227 12.347632 -29.077594 17.089063 48.422247 39.351746 86.953110 97.515683 209.109588 52.805360 189.967710 129.846390 -80.747466 -91.540012 -35.383542 56.970960 -67.750572 82.636519 196.822952 134.186074 -48.209121 -16.729917 12.724197 -24.204630 -33.563485 -10.762156 -70.064804 -38.602675 -52.831315 66.868023 -124.656266 153.562733 255.704087 2.062041 -19.360637 33.179331 -42.292432 -64.022744 -44.119788
51.083569 43.230318 -127.759808 7.838812 -2.128816 -5.890594 -59.580362 53.697923 132.311419 8.539398 -2.912608 -93.043583 -26.326838 -7.520568 -6.220867 -17.235182 -20.546170 -24.010535 -155.306262 -61.555079 -147.861506 -28.712578 77.390565 -85.427450 -7.352500 -0.113259 -12.135574 17.689968 47.616541 38.346383 78.042220 97.467701 217.863555 56.488810 187.114794 130.145334 -78.897100 -93.920586 -29.376644 45.407306 -67.051462 86.893701 207.621727 135.049943 -64.506724 -14.637714 8.643990 -26.607717 -34.109449 -12.335606 -73.559259 -46.601100 -46.479827 60.702241 -126.377105 148.168646 251.170781 6.797764 -18.154433 30.793863 -40.867747 -69.266588 -45.921510
52.197618 42.910213 -126.520594 10.075485 -3.650691 -4.980188 -62.562211 52.281471 131.172116 7.426060 -3.539264 -92.637166 -28.810520 -4.333227 -7.540366 -15.579977 -19.915119 -24.149706 -158.294647 -58.022191 -152.398213 -30.585259 75.806214 -83.610914 9.628214 12.205839 -31.956577 17.718281 44.445496 39.654415 68.005967 96.818826 230.209805 66.247849 184.421760 121.844428 -86.433626 -92.450941 -40.339367 36.715026 -66.150573 87.303150 219.854213 134.629148 -86.190874 -11.360679 3.217923 -30.214288 -34.277014 -14.023116 -78.391208 -53.643158 -42.092096 51.914632 -130.744424 142.881615 245.215566 11.535353 -15.913794 26.757947 -36.666907 -71.467227 -45.420621
53.545431 43.060593 -125.278118 11.545441 -5.019818 -5.680401 -63.150003 49.288899 126.964802 12.970833 -2.545773 -92.061518 -30.831836 4.225584 -7.975819 -11.908769 -18.086385 -25.365304 -161.162029 -53.760153 -159.176466 -32.983260 75.536954 -76.153638 -0.665159 7.819156 -29.283295 16.976770 44.459952 41.195268 57.191114 95.278004 239.097083 73.243144 182.472957 118.865864 -79.870962 -81.927969 -26.842239 27.657488 -63.135093 82.714363 224.856617 136.064130 -105.583236 -9.095754 0.024242 -36.038192 -33.624547 -14.695516 -82.652037 -58.074182 -38.110236 44.193861 -138.084309 136.855503 238.618095 17.140484 -13.011419 21.725423 -29.698216 -71.215958 -42.235721
